REM DIRINDEX 1\6,1\2\7,1\2\8,1\2\9,1\3\10,1\3\11,1\4\12,1\4\13,1\4\14,1\5\15,1\5\16,1\5\17
REM DIRNAME cjc040,folder01,folder02,folder03,folder04,folder05,folder06,folder07,folder08,folder09,folder10,folder11,folder12,folder13,folder14,folder15,folder16
TITLE ""
FILE "P2Q_k_031-040.mp3" MP3
  TRACK 01 AUDIO
    TITLE "15:cjc040_1369"
    INDEX 01 00:00:00
  TRACK 02 AUDIO
    TITLE "0:"
    INDEX 01 00:02:00
  TRACK 03 AUDIO
    TITLE "16:cjc040_1370"
    INDEX 01 00:02:53
  TRACK 04 AUDIO
    TITLE "0:"
    INDEX 01 00:04:07
  TRACK 05 AUDIO
    TITLE "17:cjc040_1371"
    INDEX 01 00:04:58
  TRACK 06 AUDIO
    TITLE "17:cjc040_1372"
    INDEX 01 00:06:67
  TRACK 07 AUDIO
    TITLE "0:"
    INDEX 01 00:12:50
  TRACK 08 AUDIO
    TITLE "15:cjc040_1373"
    INDEX 01 00:13:20
  TRACK 09 AUDIO
    TITLE "0:"
    INDEX 01 00:15:15
  TRACK 10 AUDIO
    TITLE "16:cjc040_1374"
    INDEX 01 00:15:72
  TRACK 11 AUDIO
    TITLE "0:"
    INDEX 01 00:18:29
  TRACK 12 AUDIO
    TITLE "17:cjc040_1375"
    INDEX 01 00:19:07
  TRACK 13 AUDIO
    TITLE "17:cjc040_1376"
    INDEX 01 00:22:66
  TRACK 14 AUDIO
    TITLE "0:"
    INDEX 01 00:24:37
  TRACK 15 AUDIO
    TITLE "15:cjc040_1377"
    INDEX 01 00:25:09
  TRACK 16 AUDIO
    TITLE "0:"
    INDEX 01 00:26:48
  TRACK 17 AUDIO
    TITLE "16:cjc040_1378"
    INDEX 01 00:27:26
  TRACK 18 AUDIO
    TITLE "0:"
    INDEX 01 00:28:45
  TRACK 19 AUDIO
    TITLE "17:cjc040_1379"
    INDEX 01 00:29:27
  TRACK 20 AUDIO
    TITLE "17:cjc040_1380"
    INDEX 01 00:32:33
  TRACK 21 AUDIO
    TITLE "0:"
    INDEX 01 00:36:23
  TRACK 22 AUDIO
    TITLE "15:cjc040_1381"
    INDEX 01 00:36:74
  TRACK 23 AUDIO
    TITLE "0:"
    INDEX 01 00:38:24
  TRACK 24 AUDIO
    TITLE "16:cjc040_1382"
    INDEX 01 00:39:07
  TRACK 25 AUDIO
    TITLE "0:"
    INDEX 01 00:40:38
  TRACK 26 AUDIO
    TITLE "17:cjc040_1383"
    INDEX 01 00:41:16
  TRACK 27 AUDIO
    TITLE "17:cjc040_1384"
    INDEX 01 00:43:52
  TRACK 28 AUDIO
    TITLE "0:"
    INDEX 01 00:46:23
  TRACK 29 AUDIO
    TITLE "15:cjc040_1385"
    INDEX 01 00:47:03
  TRACK 30 AUDIO
    TITLE "0:"
    INDEX 01 00:49:23
  TRACK 31 AUDIO
    TITLE "16:cjc040_1386"
    INDEX 01 00:50:01
  TRACK 32 AUDIO
    TITLE "0:"
    INDEX 01 00:51:48
  TRACK 33 AUDIO
    TITLE "17:cjc040_1387"
    INDEX 01 00:52:24
  TRACK 34 AUDIO
    TITLE "17:cjc040_1388"
    INDEX 01 00:54:15
  TRACK 35 AUDIO
    TITLE "0:"
    INDEX 01 00:56:53
  TRACK 36 AUDIO
    TITLE "15:cjc040_1389"
    INDEX 01 00:57:29
  TRACK 37 AUDIO
    TITLE "0:"
    INDEX 01 00:58:69
  TRACK 38 AUDIO
    TITLE "16:cjc040_1390"
    INDEX 01 00:59:49
  TRACK 39 AUDIO
    TITLE "0:"
    INDEX 01 01:02:24
  TRACK 40 AUDIO
    TITLE "17:cjc040_1391"
    INDEX 01 01:03:02
  TRACK 41 AUDIO
    TITLE "17:cjc040_1392"
    INDEX 01 01:05:36
  TRACK 42 AUDIO
    TITLE "0:"
    INDEX 01 01:06:71
  TRACK 43 AUDIO
    TITLE "15:cjc040_1393"
    INDEX 01 01:07:51
  TRACK 44 AUDIO
    TITLE "0:"
    INDEX 01 01:09:03
  TRACK 45 AUDIO
    TITLE "16:cjc040_1394"
    INDEX 01 01:09:61
  TRACK 46 AUDIO
    TITLE "0:"
    INDEX 01 01:11:52
  TRACK 47 AUDIO
    TITLE "17:cjc040_1395"
    INDEX 01 01:12:32
  TRACK 48 AUDIO
    TITLE "17:cjc040_1396"
    INDEX 01 01:15:27
  TRACK 49 AUDIO
    TITLE "0:"
    INDEX 01 01:17:39
  TRACK 50 AUDIO
    TITLE "15:cjc040_1397"
    INDEX 01 01:18:13
  TRACK 51 AUDIO
    TITLE "0:"
    INDEX 01 01:19:48
  TRACK 52 AUDIO
    TITLE "16:cjc040_1398"
    INDEX 01 01:20:22
  TRACK 53 AUDIO
    TITLE "0:"
    INDEX 01 01:21:51
  TRACK 54 AUDIO
    TITLE "17:cjc040_1399"
    INDEX 01 01:22:27
  TRACK 55 AUDIO
    TITLE "17:cjc040_1400"
    INDEX 01 01:26:11
  TRACK 56 AUDIO
    TITLE "0:"
    INDEX 01 01:29:07
  TRACK 57 AUDIO
    TITLE "15:cjc040_1401"
    INDEX 01 01:29:60
  TRACK 58 AUDIO
    TITLE "0:"
    INDEX 01 01:31:61
  TRACK 59 AUDIO
    TITLE "16:cjc040_1402"
    INDEX 01 01:32:35
  TRACK 60 AUDIO
    TITLE "0:"
    INDEX 01 01:34:32
  TRACK 61 AUDIO
    TITLE "17:cjc040_1403"
    INDEX 01 01:35:12
  TRACK 62 AUDIO
    TITLE "17:cjc040_1404"
    INDEX 01 01:38:36
  TRACK 63 AUDIO
    TITLE "0:"
    INDEX 01 01:41:50
  TRACK 64 AUDIO
    TITLE "15:cjc040_1405"
    INDEX 01 01:42:24
  TRACK 65 AUDIO
    TITLE "0:"
    INDEX 01 01:43:52
  TRACK 66 AUDIO
    TITLE "16:cjc040_1406"
    INDEX 01 01:44:34
  TRACK 67 AUDIO
    TITLE "0:"
    INDEX 01 01:45:44
  TRACK 68 AUDIO
    TITLE "17:cjc040_1407"
    INDEX 01 01:46:23
  TRACK 69 AUDIO
    TITLE "17:cjc040_1408"
    INDEX 01 01:48:16
  TRACK 70 AUDIO
    TITLE "0:"
    INDEX 01 01:52:18
